<?xml version="1.0" encoding="windows-1252"?>
<!-- Uploaded to: SVG Repo, www.svgrepo.com, Generator: SVG Repo Mixer Tools -->
<!DOCTYPE svg PUBLIC "-//W3C//DTD SVG 1.1//EN" "http://www.w3.org/Graphics/SVG/1.1/DTD/svg11.dtd">
<svg fill="#000000" height="800px" width="800px" version="1.1" id="Capa_1" xmlns="http://www.w3.org/2000/svg" xmlns:xlink="http://www.w3.org/1999/xlink" viewBox="0 0 480.666 480.666" xml:space="preserve">
<g id="pinterest_2_">
	<g>
		<path d="M240.35,0.008C107.612,0.008,0,107.605,0,240.31c0,98.431,59.168,182.967,143.867,220.133    c-0.717-16.795-0.157-36.918,4.145-55.17c4.646-19.522,30.957-130.976,30.957-130.976s-7.669-15.345-7.669-38.009    c0-35.623,20.637-62.215,46.323-62.215c21.885,0,32.421,16.429,32.421,36.076c0,21.962-13.996,54.85-21.198,85.283    c-6.016,25.5,12.781,46.301,37.907,46.301c45.545,0,76.221-58.506,76.221-127.781c0-52.66-35.478-92.087-100.006-92.087    c-72.916,0-118.305,54.359-118.305,115.077c0,20.949,6.142,35.702,15.837,47.127c4.428,5.268,5.051,7.388,3.43,13.405    c-1.154,4.427-3.773,15.072-4.895,19.28c-1.592,6.096-6.516,8.262-12.033,6.033c-33.573-13.733-49.192-50.471-49.192-91.814    c0-68.279,57.578-150.125,171.736-150.125c91.773,0,152.189,66.377,152.189,137.654c0,94.277-52.434,164.723-129.713,164.723    c-25.937,0-50.346-14.045-58.701-29.975c0,0-13.965,55.389-16.894,66.065c-5.113,18.517-15.089,37.058-24.193,51.491    c21.605,6.375,44.454,9.85,68.116,9.85c132.736,0,240.316-107.595,240.316-240.348C480.666,107.605,373.086,0.008,240.35,0.008z"/>
	</g>
</g>
<script xmlns="" public-path="moz-extension://90b24102-2dcf-4808-b378-cf1f10914349/"/></svg>