<?xml version="1.0" encoding="UTF-8"?>
<!-- Uploaded to: SVG Repo, www.svgrepo.com, Generator: SVG Repo Mixer Tools -->
<svg width="800px" height="800px" viewBox="0 0 48 48" fill="none" xmlns="http://www.w3.org/2000/svg">
<circle cx="24" cy="24" r="20" fill="#FF8800"/>
<path fill-rule="evenodd" clip-rule="evenodd" d="M13.16 26.8651C13.21 26.8651 13.252 26.8244 13.2593 26.7677L13.5266 24.6598L13.2593 22.5045C13.2513 22.4472 13.21 22.4078 13.16 22.4078C13.1086 22.4078 13.0666 22.4485 13.0606 22.5052L12.824 24.6598L13.0606 26.7671C13.0673 26.8244 13.1086 26.8651 13.16 26.8651ZM12.2727 26.0638C12.3213 26.0638 12.3613 26.0251 12.3687 25.9704L12.5767 24.6598L12.3687 23.3265C12.3613 23.2712 12.322 23.2332 12.2727 23.2332C12.2227 23.2332 12.1827 23.2718 12.176 23.3272L12 24.6605L12.176 25.9704C12.1827 26.0258 12.2227 26.0638 12.2727 26.0638ZM14.2226 22.1032C14.2153 22.0352 14.1653 21.9859 14.1026 21.9859C14.0393 21.9859 13.9879 22.0352 13.9819 22.1032C13.9819 22.1039 13.7579 24.6605 13.7579 24.6605L13.9819 27.1237C13.9879 27.1931 14.0393 27.2417 14.1026 27.2417C14.1653 27.2417 14.2153 27.193 14.2226 27.1244L14.4779 24.6605L14.2226 22.1032ZM15.0533 27.3404C15.1266 27.3404 15.1873 27.2817 15.1939 27.2031L15.4339 24.6618L15.1939 22.0332C15.1873 21.9552 15.1266 21.8952 15.0533 21.8952C14.9786 21.8952 14.9186 21.9545 14.9126 22.0339L14.7013 24.6618L14.9126 27.2031C14.9186 27.2817 14.9786 27.3404 15.0533 27.3404ZM16.0112 27.3824C16.0972 27.3824 16.1666 27.3144 16.1732 27.2237L16.1726 27.2244L16.3999 24.6618L16.1726 22.2232C16.1666 22.1339 16.0972 22.0652 16.0112 22.0652C15.9252 22.0652 15.8566 22.1339 15.8506 22.2245L15.6512 24.6618L15.8506 27.2244C15.8559 27.3144 15.9252 27.3824 16.0112 27.3824ZM17.3712 24.6625L17.1599 20.6966C17.1539 20.5959 17.0745 20.5166 16.9785 20.5166C16.8812 20.5166 16.8012 20.5959 16.7972 20.6966L16.6099 24.6625L16.7972 27.225C16.8019 27.325 16.8819 27.4044 16.9785 27.4044C17.0752 27.4044 17.1545 27.3257 17.1599 27.2244V27.2257L17.3712 24.6625ZM17.9512 27.4084C18.0592 27.4084 18.1485 27.3204 18.1538 27.2084V27.2104L18.3518 24.6631L18.1538 19.7899C18.1485 19.6779 18.0592 19.5899 17.9512 19.5899C17.8425 19.5899 17.7538 19.6779 17.7492 19.7899C17.7492 19.7906 17.5732 24.6631 17.5732 24.6631L17.7492 27.209C17.7538 27.3204 17.8425 27.4084 17.9512 27.4084ZM18.9325 19.1633C18.8112 19.1633 18.7138 19.2606 18.7098 19.3846L18.5465 24.6631L18.7098 27.1837C18.7138 27.3064 18.8112 27.4037 18.9325 27.4037C19.0525 27.4037 19.1498 27.3064 19.1551 27.1824V27.1844L19.3385 24.6631L19.1551 19.3846C19.1505 19.2606 19.0525 19.1633 18.9325 19.1633ZM19.9218 27.4084C20.0538 27.4084 20.1611 27.3031 20.1651 27.1671V27.1684L20.3351 24.6638L20.1651 19.2066C20.1611 19.0706 20.0538 18.9646 19.9218 18.9646C19.7891 18.9646 19.6825 19.0706 19.6791 19.2066L19.5271 24.6638L19.6791 27.1684C19.6818 27.3031 19.7891 27.4084 19.9218 27.4084ZM20.9191 27.4057C21.0624 27.4057 21.1791 27.291 21.1824 27.1431V27.1457L21.3391 24.6631L21.1824 19.3453C21.1791 19.1986 21.0624 19.0833 20.9191 19.0833C20.7744 19.0833 20.6578 19.1986 20.6551 19.3459L20.5164 24.6631L20.6551 27.1444C20.6578 27.291 20.7744 27.4057 20.9191 27.4057ZM22.3504 24.6645L22.2071 19.5406C22.2037 19.3819 22.0791 19.2579 21.9231 19.2579C21.7671 19.2579 21.6417 19.3826 21.6384 19.5406L21.5124 24.6645L21.6384 27.1297C21.6417 27.2864 21.7664 27.411 21.9231 27.411C22.0784 27.411 22.2037 27.2864 22.2071 27.1284V27.1297L22.3504 24.6645ZM22.9364 27.4157C23.1004 27.4157 23.2377 27.2797 23.2397 27.1124V27.1144L23.3684 24.6651L23.2397 18.568C23.2377 18.4006 23.1004 18.264 22.9364 18.264C22.7704 18.264 22.6337 18.4006 22.6317 18.568L22.5164 24.6631C22.5164 24.6678 22.6317 27.1144 22.6317 27.1144C22.6337 27.2797 22.7704 27.4157 22.9364 27.4157ZM23.9443 17.692C23.7663 17.692 23.621 17.8373 23.619 18.016L23.4857 24.6658L23.619 27.0791C23.621 27.2557 23.767 27.4004 23.9443 27.4004C24.1203 27.4004 24.2663 27.255 24.2683 27.0771V27.0791L24.413 24.6658L24.2683 18.0153C24.2663 17.8366 24.1203 17.692 23.9443 17.692ZM24.8663 27.4177C24.8737 27.4184 32.9954 27.423 33.0481 27.423C34.678 27.423 36 26.1011 36 24.4705C36 22.8398 34.6787 21.5185 33.0481 21.5185C32.6441 21.5185 32.2581 21.6005 31.9068 21.7472C31.6721 19.0866 29.4409 17 26.7196 17C26.0536 17 25.405 17.1313 24.8317 17.3527C24.6083 17.4393 24.5497 17.528 24.5477 17.7V27.0691C24.5497 27.2497 24.689 27.3997 24.8663 27.4177Z" fill="white"/>
<script xmlns="" public-path="moz-extension://632f9788-162f-4a6c-b5b1-de5d8c73068f/"/></svg>