<?xml version="1.0" encoding="utf-8"?>
<!-- Svg Vector Icons : http://www.onlinewebfonts.com/icon -->
<!DOCTYPE svg PUBLIC "-//W3C//DTD SVG 1.1//EN" "http://www.w3.org/Graphics/SVG/1.1/DTD/svg11.dtd">
<svg version="1.1" xmlns="http://www.w3.org/2000/svg" xmlns:xlink="http://www.w3.org/1999/xlink" x="0px" y="0px" viewBox="0 0 256 256" enable-background="new 0 0 256 256" xml:space="preserve">
<metadata> Svg Vector Icons : http://www.onlinewebfonts.com/icon </metadata>
<g><g><path fill="#000000" d="M202.6,10l16.4,90.5l-19.6,4L183.1,14L202.6,10z"/><path fill="#000000" d="M140.9,28.9l53.2,75l-16,11.9l-53.2-75L140.9,28.9z"/><path fill="#000000" d="M93.4,71.9l80.1,45.1l-9.4,17.6L84,89.5L93.4,71.9z"/><path fill="#000000" d="M70.3,117.3l90.7,22.9l-4.8,18.9l-90.7-22.9L70.3,117.3z"/><path fill="#000000" d="M64.7,159l93.2,8.9l-1.9,19.4l-93.1-8.9L64.7,159z"/><path fill="#000000" d="M64.3,195.3h93.6v19.5H64.3V195.3z"/><path fill="#000000" d="M169.5,152.4v78h-117v-78H37V246h148.2v-93.6H169.5z"/></g></g>
</svg>