<svg xmlns="http://www.w3.org/2000/svg" width="1025" height="542" viewBox="0 0 1025 542">
  <g fill="none" fill-rule="evenodd" stroke="#4C60E6" stroke-linecap="round" stroke-linejoin="round" opacity=".7" transform="translate(2)">
    <path stroke-width="6" d="M96.25,33.5 C91.9166667,28.7991453 91.9166667,24.6324786 96.25,21" opacity=".24"/>
    <path stroke-width="5" d="M546.25,197.5 C543.25,191.67094 543.25,186.504274 546.25,182" opacity=".6" transform="matrix(1 0 0 -1 0 379.5)"/>
    <path stroke-width="5" d="M161.25,138.5 C160.25,136.67094 161.25,133.504274 164.25,129" opacity=".24" transform="matrix(1 0 0 -1 0 267.5)"/>
    <path stroke-width="5" d="M506.265625,373.5 C498.598958,371.67094 496.265625,368.504274 499.265625,364" opacity=".24" transform="matrix(1 0 0 -1 0 737.5)"/>
    <path stroke-width="4" d="M223.557692,217.5 C217.891026,214.337607 216.557692,210.504274 219.557692,206" opacity=".24" transform="matrix(1 0 0 -1 0 423.5)"/>
    <path stroke-width="6" d="M784,249.5 C781.333333,245.175214 781.333333,241.34188 784,238" opacity=".24" transform="matrix(-1 0 0 1 1566 0)"/>
    <path stroke-width="6" d="M1019.6 299.5C1015.6 295.175214 1014.93333 291.34188 1017.6 288M342.6 149.5C338.6 145.175214 337.933333 141.34188 340.6 138" opacity=".24"/>
    <path stroke-width="6" d="M708,78.5 C709.333333,74.1752137 711.333333,70.3418803 714,67" opacity=".24" transform="matrix(1 0 0 -1 0 145.5)"/>
    <path stroke-width="4" d="M-1.687539e-14,187.5 C-1.687539e-14,184.508547 1.33333333,181.34188 4,178" opacity=".6" transform="matrix(-1 0 0 1 4 0)"/>
    <path stroke-width="4" d="M927,404.5 C927,401.508547 928.333333,398.34188 931,395" opacity=".6" transform="matrix(-1 0 0 1 1858 0)"/>
    <path stroke-width="4" d="M679,364.5 C679,361.508547 680.333333,358.34188 683,355" opacity=".24" transform="matrix(-1 0 0 1 1362 0)"/>
    <path stroke-width="6" d="M866.491025,99.2966334 C863.824359,95.3479154 863.824359,91.8479154 866.491025,88.7966334" opacity=".24" transform="scale(-1 1) rotate(30 0 -3136.01)"/>
    <path stroke-width="4" d="M292.75,55 C286.75,57 284.75,61 286.75,67" opacity=".6" transform="matrix(-1 0 0 1 578.75 0)"/>
    <path stroke-width="4" d="M970.75,11 C964.75,13 962.75,17 964.75,23" opacity=".6" transform="matrix(-1 0 0 1 1934.75 0)"/>
    <path stroke-width="7" d="M65.1674737,490.223583 C59.1674737,492.223583 57.1674737,496.223583 59.1674737,502.223583" opacity=".24" transform="rotate(-70 61.792 496.224)"/>
    <path stroke-width="6" d="M505.491025,10.2966334 C502.824359,6.34791542 502.824359,2.84791542 505.491025,-0.20336663" opacity=".24" transform="rotate(30 504.491 5.047)"/>
    <path stroke-width="4" d="M397.491025,539.296633 C394.824359,535.347915 394.824359,531.847915 397.491025,528.796633" opacity=".6" transform="scale(-1 1) rotate(30 0 -945.678)"/>
  </g>
</svg>
